<?xml version="1.0" standalone="yes"?>
<svg xmlns="http://www.w3.org/2000/svg" width="213" height="236">
<path style="fill:#010101; stroke:none;" d="M0 0L0 97L1 97C1.95366 50.7958 48.2238 1.96545 95 1L66 0L0 0z"/>
<path style="fill:#93c8a6; stroke:none;" d="M95 0L95 1L100 1L95 0z"/>
<path style="fill:#5faf40; stroke:none;" d="M100 0L100 1L103 1L100 0z"/>
<path style="fill:#02923f; stroke:none;" d="M63 205L63 207C52.0331 210.637 40.1596 223.893 35 234C50.5099 224.429 70.4309 207.015 90 215.199C96.7799 218.035 101.14 223.872 107 228C128.975 199.397 154.539 220.938 178 234C171.58 223.725 161.58 211.454 150 207L150 205C202.952 189.716 223.548 116.839 205.935 70C190.331 28.5031 151.148 1.21893 107 0.12886C18.9281 -2.04575 -29.1285 105.327 22.1312 173C31.9896 186.015 46.9029 200.363 63 205z"/>
<path style="fill:#5faf40; stroke:none;" d="M110 0L110 1L113 1L110 0z"/>
<path style="fill:#93c8a6; stroke:none;" d="M113 0L113 1L118 1L113 0z"/>
<path style="fill:#010101; stroke:none;" d="M118 0L118 1C165.27 3.03488 209.993 50.2639 212 97L213 97L213 0L118 0z"/>
<path style="fill:#93c8a6; stroke:none;" d="M88.6667 1.33333L89.3333 1.66667L88.6667 1.33333z"/>
<path style="fill:#5faf40; stroke:none;" d="M90 1L91 2L90 1M121.667 1.33333L122.333 1.66667L121.667 1.33333z"/>
<path style="fill:#93c8a6; stroke:none;" d="M123 1L124 2L123 1M83.6667 2.33333L84.3333 2.66667L83.6667 2.33333z"/>
<path style="fill:#5faf40; stroke:none;" d="M127 2L128 3L127 2z"/>
<path style="fill:#93c8a6; stroke:none;" d="M128 2L129 3L128 2M79 3L80 4L79 3z"/>
<path style="fill:#5faf40; stroke:none;" d="M80 3L81 4L80 3z"/>
<path style="fill:#93c8a6; stroke:none;" d="M132 3L133 4L132 3M76 4L77 5L76 4z"/>
<path style="fill:#5faf40; stroke:none;" d="M97 4L97 5L102 5L97 4z"/>
<path style="fill:#93c8a6; stroke:none;" d="M102 4L102 5L111 5L102 4z"/>
<path style="fill:#5faf40; stroke:none;" d="M111 4L111 5L116 5L111 4M135 4L136 5L135 4z"/>
<path style="fill:#93c8a6; stroke:none;" d="M136 4L137 5L136 4M73 5L74 6L73 5z"/>
<path style="fill:#5faf40; stroke:none;" d="M90.6667 5.33333L91.3333 5.66667L90.6667 5.33333z"/>
<path style="fill:#faf303; stroke:none;" d="M106 221C113.491 211.969 118.229 203.435 131 201.441C137.638 200.404 143.537 203.831 150 201.12C169.673 192.867 187.102 174.756 196.741 156C221.599 107.628 204.712 45.1528 157 17.8727C138.604 7.35446 119.79 4.9005 99 5.00076C85.4801 5.06596 71.9399 9.70178 60 15.7562C47.4675 22.1111 36.5253 31.135 27.6157 42C18.0244 53.6964 11.3732 67.3719 7.62963 82C3.49763 98.1459 3.46627 115.772 7.23534 132C14.06 161.385 34.6008 187.797 62 200.737C68.5293 203.821 73.3318 200.638 80 201.188C92.2626 202.201 100.946 210.397 106 221z"/>
<path style="fill:#93c8a6; stroke:none;" d="M120 5L121 6L120 5z"/>
<path style="fill:#5faf40; stroke:none;" d="M121.667 5.33333L122.333 5.66667L121.667 5.33333z"/>
<path style="fill:#93c8a6; stroke:none;" d="M139 5L140 6L139 5M70 6L71 7L70 6z"/>
<path style="fill:#5faf40; stroke:none;" d="M84.6667 6.33333L85.3333 6.66667L84.6667 6.33333z"/>
<path style="fill:#93c8a6; stroke:none;" d="M86 6L87 7L86 6M126 6L127 7L126 6z"/>
<path style="fill:#5faf40; stroke:none;" d="M127 6L128 7L127 6z"/>
<path style="fill:#93c8a6; stroke:none;" d="M142 6L143 7L142 6M67 7L68 8L67 7z"/>
<path style="fill:#5faf40; stroke:none;" d="M80.6667 7.33333L81.3333 7.66667L80.6667 7.33333M131 7L132 8L131 7M144 7L145 8L144 7z"/>
<path style="fill:#93c8a6; stroke:none;" d="M65 8L66 9L65 8z"/>
<path style="fill:#5faf40; stroke:none;" d="M77 8L78 9L77 8z"/>
<path style="fill:#93c8a6; stroke:none;" d="M134 8L135 9L134 8z"/>
<path style="fill:#5faf40; stroke:none;" d="M135 8L136 9L135 8z"/>
<path style="fill:#93c8a6; stroke:none;" d="M147 8L148 9L147 8z"/>
<path style="fill:#5faf40; stroke:none;" d="M63 9L64 10L63 9M74 9L75 10L74 9M138 9L139 10L138 9M149 9L150 10L149 9z"/>
<path style="fill:#93c8a6; stroke:none;" d="M60 10L61 11L60 10z"/>
<path style="fill:#5faf40; stroke:none;" d="M71 10L72 11L71 10M141 10L142 11L141 10M151 10L152 11L151 10M68 11L69 12L68 11z"/>
<path style="fill:#93c8a6; stroke:none;" d="M69 11L70 12L69 11M143 11L144 12L143 11z"/>
<path style="fill:#5faf40; stroke:none;" d="M153 11L154 12L153 11M57 12L58 13L57 12M66 12L67 13L66 12M146 12L147 13L146 12M155 12L156 13L155 12M55 13L56 14L55 13M64 13L65 14L64 13M148 13L149 14L148 13M157 13L158 14L157 13z"/>
<path style="fill:#93c8a6; stroke:none;" d="M53 14L54 15L53 14z"/>
<path style="fill:#5faf40; stroke:none;" d="M62 14L63 15L62 14M150 14L151 15L150 14z"/>
<path style="fill:#93c8a6; stroke:none;" d="M159 14L160 15L159 14z"/>
<path style="fill:#5faf40; stroke:none;" d="M60 15L61 16L60 15M152 15L153 16L152 15M50 16L51 17L50 16M58 16L59 17L58 16z"/>
<path style="fill:#93c8a6; stroke:none;" d="M97.6667 16.3333L98.3333 16.6667L97.6667 16.3333z"/>
<path style="fill:#5faf40; stroke:none;" d="M99 16L99 17L105 17L99 16M108 16L108 25L109 25L109 17L114 17L108 16z"/>
<path style="fill:#93c8a6; stroke:none;" d="M114.667 16.3333L115.333 16.6667L114.667 16.3333z"/>
<path style="fill:#5faf40; stroke:none;" d="M154 16L155 17L154 16M162 16L163 17L162 16z"/>
<path style="fill:#93c8a6; stroke:none;" d="M48 17L49 18L48 17z"/>
<path style="fill:#5faf40; stroke:none;" d="M56 17L57 18L56 17z"/>
<path style="fill:#93c8a6; stroke:none;" d="M90 17L91 18L90 17z"/>
<path style="fill:#5faf40; stroke:none;" d="M91.6667 17.3333L92.3333 17.6667L91.6667 17.3333z"/>
<path style="fill:#02923f; stroke:none;" d="M45 40C50.1474 46.7258 61.8938 57.6563 70 60.4105C83.8091 65.1023 95.4388 59.497 104 76L105 76L96.0077 48L105 17C81.0468 17 64.1641 26.8982 45 40z"/>
<path style="fill:#93c8a6; stroke:none;" d="M105 17L105 25L106 25L105 17z"/>
<path style="fill:#02923f; stroke:none;" d="M109 17L117.981 49L109 75C113.687 70.1711 117.443 65.1894 124 62.7137C130.194 60.3752 135.846 61.839 142 60.7068C148.324 59.5433 162.234 48.5228 165.248 42.831C168.02 37.5973 157.467 32.2169 154 30.0656C140.317 21.576 125.065 17 109 17z"/>
<path style="fill:#5faf40; stroke:none;" d="M120.667 17.3333L121.333 17.6667L120.667 17.3333z"/>
<path style="fill:#93c8a6; stroke:none;" d="M122 17L123 18L122 17z"/>
<path style="fill:#5faf40; stroke:none;" d="M156 17L157 18L156 17M47 18L48 19L47 18M54 18L55 19L54 18M86.6667 18.3333L87.3333 18.6667L86.6667 18.3333M125.667 18.3333L126.333 18.6667L125.667 18.3333M165 18L166 19L165 18z"/>
<path style="fill:#93c8a6; stroke:none;" d="M45 19L46 20L45 19M53 19L54 20L53 19z"/>
<path style="fill:#5faf40; stroke:none;" d="M82.6667 19.3333L83.3333 19.6667L82.6667 19.3333M129.667 19.3333L130.333 19.6667L129.667 19.3333M159 19L160 20L159 19M44 20L45 21L44 20M51 20L52 21L51 20M79 20L80 21L79 20M133 20L134 21L133 20M161 20L162 21L161 20z"/>
<path style="fill:#93c8a6; stroke:none;" d="M168 20L169 21L168 20z"/>
<path style="fill:#5faf40; stroke:none;" d="M76 21L77 22L76 21M136 21L137 22L136 21z"/>
<path style="fill:#93c8a6; stroke:none;" d="M162 21L163 22L162 21M41 22L42 23L41 22z"/>
<path style="fill:#5faf40; stroke:none;" d="M48 22L49 23L48 22M73 22L74 23L73 22z"/>
<path style="fill:#93c8a6; stroke:none;" d="M139 22L140 23L139 22z"/>
<path style="fill:#5faf40; stroke:none;" d="M164 22L165 23L164 22M40 23L41 24L40 23z"/>
<path style="fill:#93c8a6; stroke:none;" d="M47 23L48 24L47 23z"/>
<path style="fill:#5faf40; stroke:none;" d="M71 23L72 24L71 23M141 23L142 24L141 23M165 23L166 24L165 23z"/>
<path style="fill:#93c8a6; stroke:none;" d="M172 23L173 24L172 23z"/>
<path style="fill:#5faf40; stroke:none;" d="M39 24L40 25L39 24z"/>
<path style="fill:#93c8a6; stroke:none;" d="M68 24L69 25L68 24z"/>
<path style="fill:#5faf40; stroke:none;" d="M69 24L70 25L69 24M143 24L144 25L143 24M173 24L174 25L173 24M44 25L45 26L44 25z"/>
<path style="fill:#93c8a6; stroke:none;" d="M66 25L67 26L66 25M108 25L109 26L108 25z"/>
<path style="fill:#5faf40; stroke:none;" d="M145 25L146 26L145 25M168 25L169 26L168 25z"/>
<path style="fill:#93c8a6; stroke:none;" d="M43 26L44 27L43 26M64 26L65 27L64 26M109 26L110 27L109 26z"/>
<path style="fill:#5faf40; stroke:none;" d="M147 26L148 27L147 26M169 26L170 27L169 26M63 27L64 28L63 27M103 27L104 28L103 27M110 27L111 28L110 27M149 27L150 28L149 27z"/>
<path style="fill:#93c8a6; stroke:none;" d="M170 27L171 28L170 27z"/>
<path style="fill:#5faf40; stroke:none;" d="M61 28L62 29L61 28M102 28L103 29L102 28M151 28L152 29L151 28M39 29L40 30L39 29M59 29L60 30L59 29z"/>
<path style="fill:#93c8a6; stroke:none;" d="M153 29L154 30L153 29M32 30L33 31L32 30z"/>
<path style="fill:#5faf40; stroke:none;" d="M38 30L39 31L38 30z"/>
<path style="fill:#93c8a6; stroke:none;" d="M101 30L102 31L101 30z"/>
<path style="fill:#5faf40; stroke:none;" d="M112 30L113 31L112 30M154 30L155 31L154 30M174 30L175 31L174 30M37 31L38 32L37 31M56 31L57 32L56 31M100 31L101 32L100 31z"/>
<path style="fill:#93c8a6; stroke:none;" d="M156 31L157 32L156 31z"/>
<path style="fill:#5faf40; stroke:none;" d="M175 31L176 32L175 31z"/>
<path style="fill:#93c8a6; stroke:none;" d="M30 32L31 33L30 32z"/>
<path style="fill:#5faf40; stroke:none;" d="M36 32L37 33L36 32M157 32L158 33L157 32M176 32L177 33L176 32M35 33L36 34L35 33z"/>
<path style="fill:#93c8a6; stroke:none;" d="M53 33L54 34L53 33z"/>
<path style="fill:#5faf40; stroke:none;" d="M99 33L100 34L99 33M114 33L115 34L114 33M177 33L178 34L177 33M34 34L35 35L34 34M52 34L53 35L52 34M160 34L161 35L160 34M178 34L179 35L178 34M33 35L34 36L33 35M98 35L99 36L98 35M115 35L116 36L115 35M161 35L162 36L161 35M179 35L180 36L179 35M32 36L33 37L32 36z"/>
<path style="fill:#93c8a6; stroke:none;" d="M115 36L116 37L115 36z"/>
<path style="fill:#5faf40; stroke:none;" d="M180 36L181 37L180 36M31 37L32 38L31 37M48 37L49 38L48 37z"/>
<path style="fill:#93c8a6; stroke:none;" d="M164 37L165 38L164 37z"/>
<path style="fill:#5faf40; stroke:none;" d="M181 37L182 38L181 37M30 38L31 39L30 38M47 38L48 39L47 38M97 38L98 39L97 38M116 38L117 39L116 38M165 38L166 39L165 38M187 38L188 39L187 38M24 39L25 40L24 39M29 39L30 40L29 39M46 39L47 40L46 39z"/>
<path style="fill:#93c8a6; stroke:none;" d="M116 39L117 40L116 39z"/>
<path style="fill:#5faf40; stroke:none;" d="M166 39L167 40L166 39z"/>
<path style="fill:#93c8a6; stroke:none;" d="M188 39L189 40L188 39M23 40L24 41L23 40z"/>
<path style="fill:#5faf40; stroke:none;" d="M167.333 40.6667L167.667 41.3333L167.333 40.6667z"/>
<path style="fill:#93c8a6; stroke:none;" d="M45 41L46 42L45 41z"/>
<path style="fill:#5faf40; stroke:none;" d="M96.3333 41.6667L96.6667 42.3333L96.3333 41.6667z"/>
<path style="fill:#93c8a6; stroke:none;" d="M27 42L28 43L27 42z"/>
<path style="fill:#5faf40; stroke:none;" d="M117.333 42.6667L117.667 43.3333L117.333 42.6667M166 42L167 43L166 42M185 42L186 43L185 42M26 43L27 44L26 43z"/>
<path style="fill:#02923f; stroke:none;" d="M42 43C36.2725 50.5445 27.0236 59.284 25.1142 68.9853C23.8306 75.5069 37.6004 83.0808 42 86.6003C46.2746 90.0198 51.5274 96.011 57 97.2662C75.5706 101.526 93.3538 93.626 104 116L105 116L105 92C81.8852 103.81 78.279 77.5672 68.4367 64.0895C62.7124 56.2508 50.5943 47.3873 42 43z"/>
<path style="fill:#5faf40; stroke:none;" d="M43 43L44 44L43 43z"/>
<path style="fill:#93c8a6; stroke:none;" d="M96 43L97 44L96 43M169 43L170 44L169 43z"/>
<path style="fill:#5faf40; stroke:none;" d="M170 43L174 47L170 43M186 43L187 44L186 43M191 43L192 44L191 43z"/>
<path style="fill:#93c8a6; stroke:none;" d="M20 44L21 45L20 44z"/>
<path style="fill:#5faf40; stroke:none;" d="M25 44L26 45L25 44M49 44L50 45L49 44z"/>
<path style="fill:#93c8a6; stroke:none;" d="M117 44L118 45L117 44z"/>
<path style="fill:#5faf40; stroke:none;" d="M168 44L167 46L168 44z"/>
<path style="fill:#02923f; stroke:none;" d="M109 92L109 115C117.106 106.015 124.289 98.5393 137 97.1736C143.295 96.4973 150.993 98.7435 157 97.0918C165.892 94.6471 179.554 81.4197 185.836 74.7106C191.776 68.3678 177.162 43.9546 169 45.1752C165.362 45.7193 161.752 49.7988 159 52C154.432 55.6543 148.16 59.272 144.854 64.1705C140.77 70.2213 140.142 77.9398 135.471 84C128.164 93.4797 119.839 98.1853 109 92z"/>
<path style="fill:#5faf40; stroke:none;" d="M40 45L41 46L40 45M50 45L51 46L50 45M162 45L163 46L162 45M39 46L40 47L39 46M47 46L48 47L47 46M161 46L162 47L161 46z"/>
<path style="fill:#93c8a6; stroke:none;" d="M188 46L189 47L188 46z"/>
<path style="fill:#5faf40; stroke:none;" d="M193 46L194 47L193 46M18 47L19 48L18 47M23 47L24 48L23 47M38 47L39 48L38 47M48 47L49 48L48 47z"/>
<path style="fill:#93c8a6; stroke:none;" d="M160 47L161 48L160 47M164 47L165 48L164 47M174 47L175 48L174 47z"/>
<path style="fill:#5faf40; stroke:none;" d="M189 47L190 48L189 47z"/>
<path style="fill:#93c8a6; stroke:none;" d="M194 47L195 48L194 47M37 48L38 49L37 48z"/>
<path style="fill:#5faf40; stroke:none;" d="M54 48L55 49L54 48M163 48L164 49L163 48M55 49L56 50L55 49M162 49L163 50L162 49M195 49L196 50L195 49z"/>
<path style="fill:#93c8a6; stroke:none;" d="M16 50L17 51L16 50z"/>
<path style="fill:#5faf40; stroke:none;" d="M21 50L22 51L21 50M52 50L53 51L52 50z"/>
<path style="fill:#93c8a6; stroke:none;" d="M56 50L57 51L56 50z"/>
<path style="fill:#5faf40; stroke:none;" d="M156 50L157 51L156 50M191 50L192 51L191 50M20 51L21 52L20 51M53 51L54 52L53 51M155 51L156 52L155 51z"/>
<path style="fill:#93c8a6; stroke:none;" d="M159 51L160 52L159 51z"/>
<path style="fill:#5faf40; stroke:none;" d="M177 51L178 52L177 51M15 52L16 53L15 52M34 52L35 53L34 52M59 52L60 53L59 52M158 52L159 53L158 52M178 52L179 53L178 52M197 52L198 53L197 52M19 53L20 54L19 53z"/>
<path style="fill:#93c8a6; stroke:none;" d="M33 53L34 54L33 53z"/>
<path style="fill:#5faf40; stroke:none;" d="M60 53L61 54L60 53z"/>
<path style="fill:#93c8a6; stroke:none;" d="M96 53L97 54L96 53z"/>
<path style="fill:#5faf40; stroke:none;" d="M117.333 53.6667L117.667 54.3333L117.333 53.6667M157 53L158 54L157 53M193 53L194 54L193 53M57 54L58 55L57 54z"/>
<path style="fill:#93c8a6; stroke:none;" d="M61 54L62 55L61 54z"/>
<path style="fill:#5faf40; stroke:none;" d="M96 54L97 55L96 54M151 54L152 55L151 54M198 54L199 55L198 54z"/>
<path style="fill:#93c8a6; stroke:none;" d="M13 55L14 56L13 55M18 55L19 56L18 55z"/>
<path style="fill:#5faf40; stroke:none;" d="M32 55L33 56L32 55M58 55L59 56L58 55M150 55L151 56L150 55z"/>
<path style="fill:#93c8a6; stroke:none;" d="M154 55L155 56L154 55z"/>
<path style="fill:#5faf40; stroke:none;" d="M180 55L181 56L180 55M194 55L195 56L194 55M17 56L18 57L17 56z"/>
<path style="fill:#93c8a6; stroke:none;" d="M31 56L32 57L31 56M149 56L150 57L149 56z"/>
<path style="fill:#5faf40; stroke:none;" d="M153 56L154 57L153 56z"/>
<path style="fill:#93c8a6; stroke:none;" d="M12 57L13 58L12 57z"/>
<path style="fill:#5faf40; stroke:none;" d="M65 57L66 58L65 57M97 57L98 58L97 57M116 57L117 58L116 57M152 57L153 58L152 57z"/>
<path style="fill:#93c8a6; stroke:none;" d="M195 57L196 58L195 57z"/>
<path style="fill:#5faf40; stroke:none;" d="M16 58L17 59L16 58M30 58L31 59L30 58z"/>
<path style="fill:#93c8a6; stroke:none;" d="M62 58L63 59L62 58z"/>
<path style="fill:#5faf40; stroke:none;" d="M66 58L67 59L66 58M182 58L183 59L182 58z"/>
<path style="fill:#93c8a6; stroke:none;" d="M11 59L12 60L11 59M29 59L30 60L29 59z"/>
<path style="fill:#5faf40; stroke:none;" d="M63 59L64 60L63 59z"/>
<path style="fill:#93c8a6; stroke:none;" d="M67 59L68 60L67 59z"/>
<path style="fill:#5faf40; stroke:none;" d="M98 59L99 60L98 59M145 59L146 60L145 59z"/>
<path style="fill:#93c8a6; stroke:none;" d="M149 59L150 60L149 59z"/>
<path style="fill:#5faf40; stroke:none;" d="M15 60L16 61L15 60M64 60L65 61L64 60M77 60L77 61L80 61L77 60M99 60L100 61L99 60M114 60L115 61L114 60M133 60L133 61L137 61L133 60M144 60L145 61L144 60M148 60L149 61L148 60M197 60L198 61L197 60z"/>
<path style="fill:#93c8a6; stroke:none;" d="M10 61L11 62L10 61z"/>
<path style="fill:#5faf40; stroke:none;" d="M28 61L29 62L28 61M70 61L71 62L70 61z"/>
<path style="fill:#93c8a6; stroke:none;" d="M71 61L72 62L71 61M84 61L85 62L84 61z"/>
<path style="fill:#5faf40; stroke:none;" d="M85.6667 61.3333L86.3333 61.6667L85.6667 61.3333z"/>
<path style="fill:#93c8a6; stroke:none;" d="M100 61L101 62L100 61M113 61L114 62L113 61z"/>
<path style="fill:#5faf40; stroke:none;" d="M127 61L128 62L127 61z"/>
<path style="fill:#93c8a6; stroke:none;" d="M128 61L129 62L128 61z"/>
<path style="fill:#5faf40; stroke:none;" d="M142 61L143 62L142 61M147 61L148 62L147 61z"/>
<path style="fill:#93c8a6; stroke:none;" d="M184 61L185 62L184 61z"/>
<path style="fill:#5faf40; stroke:none;" d="M14 62L15 63L14 62M67 62L68 63L67 62z"/>
<path style="fill:#93c8a6; stroke:none;" d="M88 62L89 63L88 62z"/>
<path style="fill:#5faf40; stroke:none;" d="M89 62L90 63L89 62z"/>
<path style="fill:#93c8a6; stroke:none;" d="M112 62L113 63L112 62z"/>
<path style="fill:#5faf40; stroke:none;" d="M124 62L125 63L124 62M198 62L199 63L198 62z"/>
<path style="fill:#93c8a6; stroke:none;" d="M9 63L10 64L9 63z"/>
<path style="fill:#5faf40; stroke:none;" d="M27 63L28 64L27 63M68 63L69 64L68 63M91 63L92 64L91 63z"/>
<path style="fill:#93c8a6; stroke:none;" d="M102 63L103 64L102 63z"/>
<path style="fill:#5faf40; stroke:none;" d="M111 63L112 64L111 63M121 63L122 64L121 63z"/>
<path style="fill:#93c8a6; stroke:none;" d="M144 63L145 64L144 63z"/>
<path style="fill:#5faf40; stroke:none;" d="M185 63L186 64L185 63M13 64L14 65L13 64M69 64L70 65L69 64M93 64L94 65L93 64M103 64L104 65L103 64M110 64L111 65L110 64M119 64L120 65L119 64M203 64L204 65L203 64z"/>
<path style="fill:#93c8a6; stroke:none;" d="M8 65L9 66L8 65z"/>
<path style="fill:#5faf40; stroke:none;" d="M26 65L27 66L26 65M95 65L96 66L95 65M104 65L105 66L104 65M109 65L110 66L109 65z"/>
<path style="fill:#93c8a6; stroke:none;" d="M118 65L119 66L118 65z"/>
<path style="fill:#5faf40; stroke:none;" d="M143.333 65.6667L143.667 66.3333L143.333 65.6667M186 65L187 66L186 65z"/>
<path style="fill:#93c8a6; stroke:none;" d="M199 65L200 66L199 65z"/>
<path style="fill:#5faf40; stroke:none;" d="M8 66L9 67L8 66M96 66L97 67L96 66z"/>
<path style="fill:#93c8a6; stroke:none;" d="M105 66L105 77L106 77L105 66z"/>
<path style="fill:#5faf40; stroke:none;" d="M108 66L108 77L109 77L108 66M204 66L205 67L204 66z"/>
<path style="fill:#93c8a6; stroke:none;" d="M12 67L13 68L12 67z"/>
<path style="fill:#5faf40; stroke:none;" d="M25 67L26 68L25 67z"/>
<path style="fill:#93c8a6; stroke:none;" d="M70 67L71 68L70 67M97 67L98 68L97 67z"/>
<path style="fill:#5faf40; stroke:none;" d="M115 67L116 68L115 67M187 67L188 68L187 67M200 67L201 68L200 67z"/>
<path style="fill:#93c8a6; stroke:none;" d="M7 68L8 69L7 68z"/>
<path style="fill:#5faf40; stroke:none;" d="M70 68L71 69L70 68M114 68L115 69L114 68M11 69L12 70L11 69M24 69L25 70L24 69M113 69L114 70L113 69M142.333 69.6667L142.667 70.3333L142.333 69.6667M188 69L189 70L188 69M201 69L202 70L201 69M112 70L113 71L112 70M6 71L7 72L6 71M10 71L11 72L10 71z"/>
<path style="fill:#93c8a6; stroke:none;" d="M23 71L24 72L23 71z"/>
<path style="fill:#5faf40; stroke:none;" d="M71 71L72 72L71 71M101 71L102 72L101 71M189 71L190 72L189 71z"/>
<path style="fill:#93c8a6; stroke:none;" d="M206 71L207 72L206 71M10 72L11 73L10 72M24 72L25 73L24 72z"/>
<path style="fill:#5faf40; stroke:none;" d="M102 72L103 73L102 72z"/>
<path style="fill:#93c8a6; stroke:none;" d="M141 72L142 73L141 72z"/>
<path style="fill:#5faf40; stroke:none;" d="M188 72L189 73L188 72M202 72L203 73L202 72z"/>
<path style="fill:#93c8a6; stroke:none;" d="M110 73L111 74L110 73z"/>
<path style="fill:#5faf40; stroke:none;" d="M141 73L142 74L141 73M187 73L188 74L187 73M5 74L6 75L5 74M9 74L10 75L9 74M22 74L24 76L22 74M27 74L28 75L27 74M72 74L73 75L72 74z"/>
<path style="fill:#93c8a6; stroke:none;" d="M103 74L104 75L103 74M207 74L208 75L207 74M9 75L10 76L9 75z"/>
<path style="fill:#02923f; stroke:none;" d="M22 75C18.7168 85.2677 13.3473 101.17 16.4336 111.961C18.321 118.559 27.9117 123.729 33 127.8C37.2605 131.209 41.8428 136.313 47 138.258C52.6496 140.389 59.9749 139.222 66 140.654C81.8659 144.427 97.4484 155.819 104 171L105 171L105 136C88.1883 146.016 70.3989 137.862 61.3241 121C57.88 114.601 57.622 105.842 53.436 100.09C46.8324 91.0149 31.9531 80.0809 22 75z"/>
<path style="fill:#5faf40; stroke:none;" d="M28 75L29 76L28 75M140 75L141 76L140 75M189 75L188 77L189 75z"/>
<path style="fill:#02923f; stroke:none;" d="M190 75C180.546 82.6728 166.805 90.4608 159.6 100.286C155.97 105.236 156.01 113.359 153.19 119C144.033 137.313 127.537 144.705 109 137L109 170L110 170C117.324 154.517 132.582 144.097 149 140.236C154.919 138.844 162.663 140.353 168 137.461C175.85 133.207 190.593 122.706 194.987 114.91C200.211 105.642 195.336 83.4792 190 75z"/>
<path style="fill:#5faf40; stroke:none;" d="M203 75L204 76L203 75M21 76L22 77L21 76z"/>
<path style="fill:#93c8a6; stroke:none;" d="M29 76L30 77L29 76M73 76L74 77L73 76z"/>
<path style="fill:#5faf40; stroke:none;" d="M183 76L184 77L183 76z"/>
<path style="fill:#93c8a6; stroke:none;" d="M191 76L192 77L191 76z"/>
<path style="fill:#5faf40; stroke:none;" d="M4 77L5 78L4 77M8.33333 77.6667L8.66667 78.3333L8.33333 77.6667z"/>
<path style="fill:#93c8a6; stroke:none;" d="M26 77L27 78L26 77M139 77L140 78L139 77z"/>
<path style="fill:#5faf40; stroke:none;" d="M182 77L183 78L182 77M191 77L192 78L191 77z"/>
<path style="fill:#93c8a6; stroke:none;" d="M208 77L209 78L208 77z"/>
<path style="fill:#5faf40; stroke:none;" d="M27 78L28 79L27 78z"/>
<path style="fill:#93c8a6; stroke:none;" d="M181 78L182 79L181 78z"/>
<path style="fill:#5faf40; stroke:none;" d="M204 78L205 79L204 78M208 78L209 79L208 78M20 79L21 80L20 79M28 79L29 80L28 79M33 79L34 80L33 79z"/>
<path style="fill:#93c8a6; stroke:none;" d="M138 79L139 80L138 79M184 79L185 80L184 79M192 79L193 80L192 79M204 79L205 80L204 79M3 80L4 81L3 80z"/>
<path style="fill:#5faf40; stroke:none;" d="M34 80L35 81L34 80z"/>
<path style="fill:#93c8a6; stroke:none;" d="M75 80L76 81L75 80z"/>
<path style="fill:#5faf40; stroke:none;" d="M178 80L179 81L178 80M183 80L184 81L183 80M192 80L193 81L192 80M3 81L4 82L3 81M7 81L8 82L7 81M137 81L138 82L137 81M177 81L178 82L177 81M182 81L183 82L182 81z"/>
<path style="fill:#93c8a6; stroke:none;" d="M209 81L210 82L209 81M7 82L8 83L7 82z"/>
<path style="fill:#5faf40; stroke:none;" d="M19.3333 82.6667L19.6667 83.3333L19.3333 82.6667M32 82L33 83L32 82M76 82L77 83L76 82z"/>
<path style="fill:#93c8a6; stroke:none;" d="M176 82L177 83L176 82M193 82L194 83L193 82z"/>
<path style="fill:#5faf40; stroke:none;" d="M205 82L206 83L205 82M209 82L210 83L209 82M33 83L34 84L33 83M38 83L39 84L38 83z"/>
<path style="fill:#93c8a6; stroke:none;" d="M179 83L180 84L179 83z"/>
<path style="fill:#5faf40; stroke:none;" d="M193 83L194 84L193 83M39 84L40 85L39 84M135 84L136 85L135 84M173 84L174 85L173 84M178 84L179 85L178 84z"/>
<path style="fill:#93c8a6; stroke:none;" d="M2 85L3 86L2 85z"/>
<path style="fill:#5faf40; stroke:none;" d="M6.33333 85.6667L6.66667 86.3333L6.33333 85.6667z"/>
<path style="fill:#93c8a6; stroke:none;" d="M40 85L41 86L40 85z"/>
<path style="fill:#5faf40; stroke:none;" d="M78 85L79 86L78 85M172 85L173 86L172 85M177 85L178 86L177 85z"/>
<path style="fill:#93c8a6; stroke:none;" d="M210 85L211 86L210 85z"/>
<path style="fill:#5faf40; stroke:none;" d="M18.3333 86.6667L18.6667 87.3333L18.3333 86.6667M37 86L38 87L37 86M79 86L80 87L79 86z"/>
<path style="fill:#93c8a6; stroke:none;" d="M171 86L172 87L171 86M194 86L195 87L194 86z"/>
<path style="fill:#5faf40; stroke:none;" d="M206 86L207 87L206 86M210 86L211 87L210 86M38 87L39 88L38 87M43 87L44 88L43 87z"/>
<path style="fill:#93c8a6; stroke:none;" d="M80 87L81 88L80 87M174 87L175 88L174 87z"/>
<path style="fill:#5faf40; stroke:none;" d="M194 87L195 88L194 87z"/>
<path style="fill:#93c8a6; stroke:none;" d="M206 87L207 88L206 87z"/>
<path style="fill:#5faf40; stroke:none;" d="M44 88L45 89L44 88z"/>
<path style="fill:#93c8a6; stroke:none;" d="M81 88L82 89L81 88z"/>
<path style="fill:#5faf40; stroke:none;" d="M173 88L174 89L173 88z"/>
<path style="fill:#93c8a6; stroke:none;" d="M45 89L46 90L45 89M82 89L83 90L82 89z"/>
<path style="fill:#5faf40; stroke:none;" d="M167 89L168 90L167 89M172 89L173 90L172 89z"/>
<path style="fill:#93c8a6; stroke:none;" d="M1 90L2 91L1 90z"/>
<path style="fill:#5faf40; stroke:none;" d="M5.33333 90.6667L5.66667 91.3333L5.33333 90.6667z"/>
<path style="fill:#93c8a6; stroke:none;" d="M17 90L18 91L17 90M42 90L43 91L42 90z"/>
<path style="fill:#5faf40; stroke:none;" d="M83 90L84 91L83 90M166 90L167 91L166 90M1 91L2 92L1 91M17.3333 91.6667L17.6667 92.3333L17.3333 91.6667M43 91L44 92L43 91M48 91L49 92L48 91M84 91L85 92L84 91M104 91L105 92L104 91z"/>
<path style="fill:#93c8a6; stroke:none;" d="M105 91L105 117L106 117L105 91z"/>
<path style="fill:#5faf40; stroke:none;" d="M108 91L108 117L109 117L108 91z"/>
<path style="fill:#93c8a6; stroke:none;" d="M128 91L129 92L128 91M195 91L196 92L195 91z"/>
<path style="fill:#5faf40; stroke:none;" d="M207.333 91.6667L207.667 92.3333L207.333 91.6667z"/>
<path style="fill:#93c8a6; stroke:none;" d="M211 91L212 92L211 91M5 92L6 93L5 92z"/>
<path style="fill:#5faf40; stroke:none;" d="M44 92L45 93L44 92M49 92L50 93L49 92z"/>
<path style="fill:#93c8a6; stroke:none;" d="M86 92L87 93L86 92z"/>
<path style="fill:#5faf40; stroke:none;" d="M103 92L104 93L103 92M127 92L128 93L127 92M168 92L169 93L168 92M195.333 92.6667L195.667 93.3333L195.333 92.6667M211 92L212 93L211 92z"/>
<path style="fill:#93c8a6; stroke:none;" d="M50 93L51 94L50 93z"/>
<path style="fill:#5faf40; stroke:none;" d="M87 93L88 94L87 93M102 93L103 94L102 93z"/>
<path style="fill:#93c8a6; stroke:none;" d="M111 93L112 94L111 93z"/>
<path style="fill:#5faf40; stroke:none;" d="M125 93L126 94L125 93M162 93L163 94L162 93M167 93L168 94L167 93z"/>
<path style="fill:#93c8a6; stroke:none;" d="M207 93L208 94L207 93M47 94L48 95L47 94z"/>
<path style="fill:#5faf40; stroke:none;" d="M90 94L91 95L90 94M100 94L101 95L100 94M112 94L113 95L112 94z"/>
<path style="fill:#93c8a6; stroke:none;" d="M122 94L123 95L122 94z"/>
<path style="fill:#5faf40; stroke:none;" d="M123 94L124 95L123 94M161 94L162 95L161 94M48 95L49 96L48 95M53 95L54 96L53 95M93 95L93 96L98 96L93 95M115 95L115 96L120 96L115 95z"/>
<path style="fill:#93c8a6; stroke:none;" d="M160 95L161 96L160 95z"/>
<path style="fill:#5faf40; stroke:none;" d="M49 96L50 97L49 96M54 96L55 97L54 96M163 96L164 97L163 96z"/>
<path style="fill:#93c8a6; stroke:none;" d="M0 97L0 101L1 101L0 97M16 97L17 98L16 97z"/>
<path style="fill:#5faf40; stroke:none;" d="M55 97L56 98L55 97M59.6667 97.3333L60.3333 97.6667L59.6667 97.3333z"/>
<path style="fill:#93c8a6; stroke:none;" d="M61 97L62 98L61 97M77 97L78 98L77 97z"/>
<path style="fill:#5faf40; stroke:none;" d="M78.6667 97.3333L79.3333 97.6667L78.6667 97.3333M134.667 97.3333L135.333 97.6667L134.667 97.3333M152 97L152 98L155 98L152 97M157 97L158 98L157 97M162 97L163 98L162 97z"/>
<path style="fill:#93c8a6; stroke:none;" d="M212 97L212 103L213 103L212 97z"/>
<path style="fill:#5faf40; stroke:none;" d="M4 98L4 102L5 102L4 98M16 98L16 102L17 102L16 98z"/>
<path style="fill:#93c8a6; stroke:none;" d="M52 98L53 99L52 98M82 98L83 99L82 98z"/>
<path style="fill:#5faf40; stroke:none;" d="M83 98L84 99L83 98M130 98L131 99L130 98M161 98L162 99L161 98z"/>
<path style="fill:#93c8a6; stroke:none;" d="M196 98L197 99L196 98z"/>
<path style="fill:#5faf40; stroke:none;" d="M53 99L54 100L53 99z"/>
<path style="fill:#93c8a6; stroke:none;" d="M85 99L86 100L85 99z"/>
<path style="fill:#5faf40; stroke:none;" d="M86 99L87 100L86 99M127 99L128 100L127 99M196 99L196 106L197 106L196 99M208 99L208 116L209 116L208 99M54 100L55 101L54 100M88 100L89 101L88 100M124 100L125 101L124 100z"/>
<path style="fill:#93c8a6; stroke:none;" d="M158 100L159 101L158 100z"/>
<path style="fill:#5faf40; stroke:none;" d="M0 101L0 104L1 104L0 101M90 101L91 102L90 101M122 101L123 102L122 101z"/>
<path style="fill:#93c8a6; stroke:none;" d="M4 102L4 106L5 106L4 102M55 102L56 103L55 102z"/>
<path style="fill:#5faf40; stroke:none;" d="M92 102L93 103L92 102M55.3333 103.667L55.6667 104.333L55.3333 103.667z"/>
<path style="fill:#93c8a6; stroke:none;" d="M93 103L94 104L93 103z"/>
<path style="fill:#5faf40; stroke:none;" d="M119 103L120 104L119 103M212 103L212 112L213 112L212 103z"/>
<path style="fill:#93c8a6; stroke:none;" d="M118 104L119 105L118 104z"/>
<path style="fill:#5faf40; stroke:none;" d="M96 105L97 106L96 105M157.333 105.667L157.667 106.333L157.333 105.667M97 106L98 107L97 106z"/>
<path style="fill:#93c8a6; stroke:none;" d="M56 107L57 108L56 107z"/>
<path style="fill:#5faf40; stroke:none;" d="M98 107L99 108L98 107M56 108L57 109L56 108M99 108L100 109L99 108M100 109L101 110L100 109z"/>
<path style="fill:#93c8a6; stroke:none;" d="M156 109L157 110L156 109z"/>
<path style="fill:#5faf40; stroke:none;" d="M196 109L196 115L197 115L196 109z"/>
<path style="fill:#93c8a6; stroke:none;" d="M4 110L4 113L5 113L4 110M112 110L113 111L112 110z"/>
<path style="fill:#5faf40; stroke:none;" d="M156 110L157 111L156 110M0 111L0 114L1 114L0 111z"/>
<path style="fill:#93c8a6; stroke:none;" d="M57 111L58 112L57 111z"/>
<path style="fill:#5faf40; stroke:none;" d="M111 111L112 112L111 111M57 112L58 113L57 112M102 112L103 113L102 112z"/>
<path style="fill:#93c8a6; stroke:none;" d="M212 112L212 116L213 116L212 112z"/>
<path style="fill:#5faf40; stroke:none;" d="M4 113L4 118L5 118L4 113M16 113L17 114L16 113M110 113L111 114L110 113M155 113L156 114L155 113z"/>
<path style="fill:#93c8a6; stroke:none;" d="M0 114L0 117L1 117L0 114M16 114L17 115L16 114M58 114L59 115L58 114M103 114L104 115L103 114M109 115L110 116L109 115M154 115L155 116L154 115z"/>
<path style="fill:#5faf40; stroke:none;" d="M195 115L196 116L195 115M19 116L20 117L19 116M104 116L105 117L104 116M154 116L155 117L154 116z"/>
<path style="fill:#010101; stroke:none;" d="M212 116C211.897 153.408 183.941 189.62 151 205L151 207C161.507 214.176 170.445 223.808 178 234C162.384 223.466 141.964 207.525 122 215.479C115.223 218.179 110.81 223.908 105 228C90.5497 197.098 51.1369 221.792 34 235C41.1104 224.251 50.7588 213.49 62 207L62 205C29.1866 191.266 1.09976 153.152 1 117L0 117L0 236L213 236L213 152L212 116z"/>
<path style="fill:#5faf40; stroke:none;" d="M20 117L21 118L20 117M59 117L60 118L59 117z"/>
<path style="fill:#93c8a6; stroke:none;" d="M21 118L22 119L21 118z"/>
<path style="fill:#5faf40; stroke:none;" d="M153 118L154 119L153 118M191 118L192 119L191 118z"/>
<path style="fill:#02923f; stroke:none;" d="M17 119C20.4518 146.171 35.8543 172.243 60 186C54.3633 177.902 48.3436 170.87 45.8989 161C44.4125 154.999 45.948 145.468 42.9722 140.289C38.3997 132.332 24.7206 123.824 17 119z"/>
<path style="fill:#93c8a6; stroke:none;" d="M18 119L19 120L18 119z"/>
<path style="fill:#5faf40; stroke:none;" d="M60 119L61 120L60 119M190 119L191 120L190 119z"/>
<path style="fill:#02923f; stroke:none;" d="M195 119L170.642 140.039L167.764 160L157 183C173.232 173.628 184.648 156.207 191.186 139C193.335 133.345 196.437 125.007 195 119z"/>
<path style="fill:#5faf40; stroke:none;" d="M19 120L20 121L19 120M152 120L153 121L152 120z"/>
<path style="fill:#93c8a6; stroke:none;" d="M189 120L190 121L189 120z"/>
<path style="fill:#5faf40; stroke:none;" d="M20 121L21 122L20 121M25 121L26 122L25 121M61 121L62 122L61 121z"/>
<path style="fill:#93c8a6; stroke:none;" d="M192 121L193 122L192 121z"/>
<path style="fill:#5faf40; stroke:none;" d="M195 121L195 124L196 124L195 121z"/>
<path style="fill:#93c8a6; stroke:none;" d="M207 121L208 122L207 121M5 122L6 123L5 122z"/>
<path style="fill:#5faf40; stroke:none;" d="M17.3333 122.667L17.6667 123.333L17.3333 122.667M26 122L27 123L26 122M151 122L152 123L151 122M186 122L187 123L186 122M191 122L192 123L191 122M207.333 122.667L207.667 123.333L207.333 122.667M211 122L212 123L211 122M1 123L2 124L1 123M5.33333 123.667L5.66667 124.333L5.33333 123.667z"/>
<path style="fill:#93c8a6; stroke:none;" d="M23 123L24 124L23 123z"/>
<path style="fill:#5faf40; stroke:none;" d="M62 123L63 124L62 123M185 123L186 124L185 123M190 123L191 124L190 123z"/>
<path style="fill:#93c8a6; stroke:none;" d="M211.333 123.667L211.667 124.333L211.333 123.667M1.33333 124.667L1.66667 125.333L1.33333 124.667M17 124L18 125L17 124z"/>
<path style="fill:#5faf40; stroke:none;" d="M24 124L25 125L24 124z"/>
<path style="fill:#93c8a6; stroke:none;" d="M184 124L185 125L184 124z"/>
<path style="fill:#5faf40; stroke:none;" d="M25 125L26 126L25 125M30 125L31 126L30 125M149 125L150 126L149 125z"/>
<path style="fill:#93c8a6; stroke:none;" d="M187 125L188 126L187 125z"/>
<path style="fill:#5faf40; stroke:none;" d="M31 126L32 127L31 126M64 126L65 127L64 126M186 126L187 127L186 126z"/>
<path style="fill:#93c8a6; stroke:none;" d="M32 127L33 128L32 127M65 127L66 128L65 127z"/>
<path style="fill:#5faf40; stroke:none;" d="M180 127L181 128L180 127M185 127L186 128L185 127M194 127L195 128L194 127z"/>
<path style="fill:#93c8a6; stroke:none;" d="M206 127L207 128L206 127M6 128L7 129L6 128z"/>
<path style="fill:#5faf40; stroke:none;" d="M18 128L19 129L18 128M29 128L30 129L29 128M147 128L148 129L147 128M179 128L180 129L179 128z"/>
<path style="fill:#93c8a6; stroke:none;" d="M194 128L195 129L194 128z"/>
<path style="fill:#5faf40; stroke:none;" d="M206.333 128.667L206.667 129.333L206.333 128.667M210 128L211 129L210 128M2 129L3 130L2 129M6 129L7 130L6 129z"/>
<path style="fill:#93c8a6; stroke:none;" d="M18 129L19 130L18 129z"/>
<path style="fill:#5faf40; stroke:none;" d="M30 129L31 130L30 129M35 129L36 130L35 129M146 129L147 130L146 129z"/>
<path style="fill:#93c8a6; stroke:none;" d="M182 129L183 130L182 129M210 129L211 130L210 129M2 130L3 131L2 130z"/>
<path style="fill:#5faf40; stroke:none;" d="M31 130L32 131L31 130M36 130L37 131L36 130M145 130L146 131L145 130M181 130L182 131L181 130z"/>
<path style="fill:#93c8a6; stroke:none;" d="M37 131L38 132L37 131z"/>
<path style="fill:#5faf40; stroke:none;" d="M144 131L145 132L144 131M175 131L176 132L175 131M180 131L181 132L180 131M193 131L194 132L193 131M19 132L20 133L19 132z"/>
<path style="fill:#93c8a6; stroke:none;" d="M34 132L35 133L34 132z"/>
<path style="fill:#5faf40; stroke:none;" d="M143 132L144 133L143 132M174 132L175 133L174 132z"/>
<path style="fill:#93c8a6; stroke:none;" d="M193 132L194 133L193 132z"/>
<path style="fill:#5faf40; stroke:none;" d="M205.333 132.667L205.667 133.333L205.333 132.667M3 133L4 134L3 133M7 133L8 134L7 133M35 133L36 134L35 133M40 133L41 134L40 133M142 133L143 134L142 133z"/>
<path style="fill:#93c8a6; stroke:none;" d="M173 133L174 134L173 133z"/>
<path style="fill:#5faf40; stroke:none;" d="M209 133L210 134L209 133z"/>
<path style="fill:#93c8a6; stroke:none;" d="M3 134L4 135L3 134z"/>
<path style="fill:#5faf40; stroke:none;" d="M36 134L37 135L36 134M41 134L42 135L41 134M72 134L73 135L72 134z"/>
<path style="fill:#93c8a6; stroke:none;" d="M176 134L177 135L176 134z"/>
<path style="fill:#5faf40; stroke:none;" d="M20 135L21 136L20 135M42 135L43 136L42 135M73 135L74 136L73 135z"/>
<path style="fill:#93c8a6; stroke:none;" d="M105 135L105 172L106 172C106 161.351 109.111 144.798 105 135M108 135L109 136L108 135z"/>
<path style="fill:#5faf40; stroke:none;" d="M139 135L140 136L139 135M170 135L171 136L170 135M175 135L176 136L175 135M192 135L193 136L192 135z"/>
<path style="fill:#93c8a6; stroke:none;" d="M8 136L9 137L8 136M20 136L21 137L20 136M39 136L40 137L39 136z"/>
<path style="fill:#5faf40; stroke:none;" d="M75 136L76 137L75 136M108 136L108 171L109 171L110 136L108 136M169 136L170 137L169 136M204 136L205 137L204 136M4 137L5 138L4 137M8 137L9 138L8 137M40 137L41 138L40 137M77 137L78 138L77 137z"/>
<path style="fill:#93c8a6; stroke:none;" d="M102 137L103 138L102 137z"/>
<path style="fill:#5faf40; stroke:none;" d="M110 137L111 138L110 137M136 137L137 138L136 137z"/>
<path style="fill:#93c8a6; stroke:none;" d="M168 137L169 138L168 137M208 137L209 138L208 137M4 138L5 139L4 138z"/>
<path style="fill:#5faf40; stroke:none;" d="M21 138L22 139L21 138M41 138L42 139L41 138M46 138L47 139L46 138M79 138L80 139L79 138M101 138L102 139L101 138M112 138L113 139L112 138z"/>
<path style="fill:#93c8a6; stroke:none;" d="M133 138L134 139L133 138z"/>
<path style="fill:#5faf40; stroke:none;" d="M162.667 138.333L163.333 138.667L162.667 138.333z"/>
<path style="fill:#93c8a6; stroke:none;" d="M171 138L172 139L171 138z"/>
<path style="fill:#5faf40; stroke:none;" d="M191 138L192 139L191 138z"/>
<path style="fill:#93c8a6; stroke:none;" d="M58 139L59 140L58 139z"/>
<path style="fill:#5faf40; stroke:none;" d="M59.6667 139.333L60.3333 139.667L59.6667 139.333M81 139L82 140L81 139M99 139L100 140L99 139z"/>
<path style="fill:#93c8a6; stroke:none;" d="M114 139L115 140L114 139z"/>
<path style="fill:#5faf40; stroke:none;" d="M131 139L132 140L131 139M152.667 139.333L153.333 139.667L152.667 139.333z"/>
<path style="fill:#93c8a6; stroke:none;" d="M154 139L155 140L154 139z"/>
<path style="fill:#5faf40; stroke:none;" d="M170 139L171 140L170 139z"/>
<path style="fill:#93c8a6; stroke:none;" d="M203 139L204 140L203 139z"/>
<path style="fill:#5faf40; stroke:none;" d="M9 140L10 141L9 140z"/>
<path style="fill:#93c8a6; stroke:none;" d="M64 140L65 141L64 140z"/>
<path style="fill:#5faf40; stroke:none;" d="M65 140L66 141L65 140M84 140L85 141L84 140z"/>
<path style="fill:#93c8a6; stroke:none;" d="M85 140L86 141L85 140z"/>
<path style="fill:#5faf40; stroke:none;" d="M96 140L97 141L96 140M116 140L117 141L116 140z"/>
<path style="fill:#93c8a6; stroke:none;" d="M117 140L118 141L117 140z"/>
<path style="fill:#5faf40; stroke:none;" d="M128 140L129 141L128 140M147.667 140.333L148.333 140.667L147.667 140.333M169 140L170 141L169 140M190 140L191 141L190 140M203 140L204 141L203 140M207 140L208 141L207 140z"/>
<path style="fill:#93c8a6; stroke:none;" d="M5 141L6 142L5 141z"/>
<path style="fill:#5faf40; stroke:none;" d="M22 141L23 142L22 141z"/>
<path style="fill:#93c8a6; stroke:none;" d="M44 141L45 142L44 141M68 141L69 142L68 141z"/>
<path style="fill:#5faf40; stroke:none;" d="M69 141L70 142L69 141M90.6667 141.333L91.3333 141.667L90.6667 141.333M122 141L123 142L122 141M144 141L145 142L144 141z"/>
<path style="fill:#93c8a6; stroke:none;" d="M190 141L191 142L190 141M71 142L72 143L71 142z"/>
<path style="fill:#5faf40; stroke:none;" d="M72 142L73 143L72 142M141 142L142 143L141 142M202 142L203 143L202 142M6 143L7 144L6 143M10 143L11 144L10 143M23 143L24 144L23 143M74 143L75 144L74 143M138 143L139 144L138 143M189 143L190 144L189 143M206 143L207 144L206 143z"/>
<path style="fill:#93c8a6; stroke:none;" d="M6 144L7 145L6 144M76 144L77 145L76 144z"/>
<path style="fill:#5faf40; stroke:none;" d="M77 144L78 145L77 144M136 144L137 145L136 144M169 144L169 148L170 148L169 144z"/>
<path style="fill:#93c8a6; stroke:none;" d="M11 145L12 146L11 145z"/>
<path style="fill:#5faf40; stroke:none;" d="M79 145L80 146L79 145M134 145L135 146L134 145M188 145L189 146L188 145M201 145L202 146L201 145M7 146L8 147L7 146z"/>
<path style="fill:#93c8a6; stroke:none;" d="M24 146L25 147L24 146z"/>
<path style="fill:#5faf40; stroke:none;" d="M132 146L133 147L132 146z"/>
<path style="fill:#93c8a6; stroke:none;" d="M205 146L206 147L205 146M7 147L8 148L7 147M82 147L83 148L82 147z"/>
<path style="fill:#5faf40; stroke:none;" d="M130 147L131 148L130 147M187 147L188 148L187 147z"/>
<path style="fill:#93c8a6; stroke:none;" d="M200 147L201 148L200 147z"/>
<path style="fill:#5faf40; stroke:none;" d="M12 148L13 149L12 148z"/>
<path style="fill:#93c8a6; stroke:none;" d="M25 148L26 149L25 148z"/>
<path style="fill:#5faf40; stroke:none;" d="M84 148L85 149L84 148M204 148L205 149L204 148z"/>
<path style="fill:#93c8a6; stroke:none;" d="M8 149L9 150L8 149z"/>
<path style="fill:#5faf40; stroke:none;" d="M127 149L128 150L127 149M186 149L187 150L186 149z"/>
<path style="fill:#93c8a6; stroke:none;" d="M204 149L205 150L204 149z"/>
<path style="fill:#5faf40; stroke:none;" d="M13 150L14 151L13 150z"/>
<path style="fill:#93c8a6; stroke:none;" d="M26 150L27 151L26 150M44 150L45 151L44 150z"/>
<path style="fill:#5faf40; stroke:none;" d="M87 150L88 151L87 150M199 150L200 151L199 150M9 151L10 152L9 151M44 151L44 154L45 154L44 151M88 151L89 152L88 151M124 151L125 152L124 151M185 151L186 152L185 151z"/>
<path style="fill:#93c8a6; stroke:none;" d="M203 151L204 152L203 151z"/>
<path style="fill:#5faf40; stroke:none;" d="M14 152L15 153L14 152M123 152L124 153L123 152M198 152L199 153L198 152M10 153L11 154L10 153M28 153L29 154L28 153M122 153L123 154L122 153M184 153L185 154L184 153z"/>
<path style="fill:#93c8a6; stroke:none;" d="M202 153L203 154L202 153z"/>
<path style="fill:#5faf40; stroke:none;" d="M15 154L16 155L15 154z"/>
<path style="fill:#93c8a6; stroke:none;" d="M121 154L122 155L121 154M168 154L169 155L168 154z"/>
<path style="fill:#5faf40; stroke:none;" d="M197 154L198 155L197 154M11 155L12 156L11 155M29 155L30 156L29 155M93 155L94 156L93 155z"/>
<path style="fill:#93c8a6; stroke:none;" d="M120 155L121 156L120 155z"/>
<path style="fill:#5faf40; stroke:none;" d="M168.333 155.667L168.667 156.333L168.333 155.667z"/>
<path style="fill:#93c8a6; stroke:none;" d="M183 155L184 156L183 155M201 155L202 156L201 155z"/>
<path style="fill:#5faf40; stroke:none;" d="M16 156L17 157L16 156z"/>
<path style="fill:#93c8a6; stroke:none;" d="M119 156L120 157L119 156z"/>
<path style="fill:#5faf40; stroke:none;" d="M182 156L183 157L182 156M196 156L197 157L196 156M12 157L13 158L12 157z"/>
<path style="fill:#93c8a6; stroke:none;" d="M118 157L119 158L118 157M200 157L201 158L200 157z"/>
<path style="fill:#5faf40; stroke:none;" d="M17 158L18 159L17 158M31 158L32 159L31 158M45.3333 158.667L45.6667 159.333L45.3333 158.667M117 158L118 159L117 158M181 158L182 159L181 158M195 158L196 159L195 158M13 159L14 160L13 159M116 159L117 160L116 159M180 159L181 160L180 159z"/>
<path style="fill:#93c8a6; stroke:none;" d="M199 159L200 160L199 159z"/>
<path style="fill:#5faf40; stroke:none;" d="M18 160L19 161L18 160z"/>
<path style="fill:#93c8a6; stroke:none;" d="M97 160L98 161L97 160z"/>
<path style="fill:#5faf40; stroke:none;" d="M115 160L116 161L115 160M167.333 160.667L167.667 161.333L167.333 160.667z"/>
<path style="fill:#93c8a6; stroke:none;" d="M14 161L15 162L14 161M19 161L20 162L19 161z"/>
<path style="fill:#5faf40; stroke:none;" d="M33 161L34 162L33 161M98 161L99 162L98 161z"/>
<path style="fill:#93c8a6; stroke:none;" d="M179 161L180 162L179 161z"/>
<path style="fill:#5faf40; stroke:none;" d="M193 161L194 162L193 161z"/>
<path style="fill:#93c8a6; stroke:none;" d="M198 161L199 162L198 161z"/>
<path style="fill:#5faf40; stroke:none;" d="M46.3333 162.667L46.6667 163.333L46.3333 162.667M99 162L100 163L99 162M178 162L179 163L178 162z"/>
<path style="fill:#93c8a6; stroke:none;" d="M15 163L16 164L15 163z"/>
<path style="fill:#5faf40; stroke:none;" d="M20 163L21 164L20 163M113 163L114 164L113 163M192 163L193 164L192 163M16 164L17 165L16 164z"/>
<path style="fill:#93c8a6; stroke:none;" d="M100 164L101 165L100 164M124 164L125 165L124 164z"/>
<path style="fill:#5faf40; stroke:none;" d="M125 164L126 165L125 164z"/>
<path style="fill:#02923f; stroke:none;" d="M115 198L147 195C144.457 187.185 142.225 172.093 135.722 166.703C129.979 161.942 120.544 164.592 117.318 171.015C113.832 177.956 115 190.317 115 198z"/>
<path style="fill:#5faf40; stroke:none;" d="M131 164L132 165L131 164z"/>
<path style="fill:#93c8a6; stroke:none;" d="M132 164L133 165L132 164z"/>
<path style="fill:#5faf40; stroke:none;" d="M166 164L167 165L166 164z"/>
<path style="fill:#93c8a6; stroke:none;" d="M191 164L192 165L191 164z"/>
<path style="fill:#5faf40; stroke:none;" d="M196 164L197 165L196 164M36 165L37 166L36 165z"/>
<path style="fill:#93c8a6; stroke:none;" d="M47 165L48 166L47 165M79 165L80 166L79 165z"/>
<path style="fill:#5faf40; stroke:none;" d="M80 165L81 166L80 165z"/>
<path style="fill:#02923f; stroke:none;" d="M81 165.533C60.8765 170.394 68.5489 202.298 89 197.606C108.811 193.06 101.113 160.675 81 165.533z"/>
<path style="fill:#5faf40; stroke:none;" d="M89 165L90 166L89 165M101 165L102 166L101 165M122 165L123 166L122 165M134 165L135 166L134 165z"/>
<path style="fill:#93c8a6; stroke:none;" d="M176 165L177 166L176 165M17 166L18 167L17 166z"/>
<path style="fill:#5faf40; stroke:none;" d="M22 166L23 167L22 166M37 166L38 167L37 166M47 166L48 167L47 166M77 166L78 167L77 166M111 166L112 167L111 166M120 166L121 167L120 166M175 166L176 167L175 166M190 166L191 167L190 166z"/>
<path style="fill:#93c8a6; stroke:none;" d="M195 166L196 167L195 166z"/>
<path style="fill:#5faf40; stroke:none;" d="M38 167L39 168L38 167M93 167L94 168L93 167M102 167L103 168L102 167M119 167L120 168L119 167M165 167L166 168L165 167M174 167L175 168L174 167z"/>
<path style="fill:#93c8a6; stroke:none;" d="M189 167L190 168L189 167z"/>
<path style="fill:#5faf40; stroke:none;" d="M194 167L195 168L194 167M48 168L49 169L48 168z"/>
<path style="fill:#93c8a6; stroke:none;" d="M74 168L75 169L74 168M110 168L111 169L110 168z"/>
<path style="fill:#5faf40; stroke:none;" d="M118 168L119 169L118 168M173 168L174 169L173 168z"/>
<path style="fill:#93c8a6; stroke:none;" d="M19 169L20 170L19 169z"/>
<path style="fill:#5faf40; stroke:none;" d="M24 169L25 170L24 169z"/>
<path style="fill:#93c8a6; stroke:none;" d="M73 169L74 170L73 169M103 169L104 170L103 169M117 169L118 170L117 169M138 169L139 170L138 169z"/>
<path style="fill:#5faf40; stroke:none;" d="M164 169L165 170L164 169M20 170L21 171L20 170M25 170L26 171L25 170z"/>
<path style="fill:#93c8a6; stroke:none;" d="M49 170L50 171L49 170M72 170L73 171L72 170z"/>
<path style="fill:#5faf40; stroke:none;" d="M138 170L139 171L138 170M187 170L188 171L187 170M192 170L193 171L192 170M97 171L98 172L97 171z"/>
<path style="fill:#93c8a6; stroke:none;" d="M108 171L109 172L108 171M116 171L117 172L116 171M163 171L164 172L163 171M186 171L187 172L186 171M50 172L51 173L50 172z"/>
<path style="fill:#5faf40; stroke:none;" d="M71 172L72 173L71 172M98 172L99 173L98 172M116 172L117 173L116 172z"/>
<path style="fill:#93c8a6; stroke:none;" d="M139 172L140 173L139 172M22 173L23 174L22 173M70 173L71 174L70 173z"/>
<path style="fill:#5faf40; stroke:none;" d="M139 173L140 174L139 173z"/>
<path style="fill:#93c8a6; stroke:none;" d="M162 173L163 174L162 173M190 173L191 174L190 173z"/>
<path style="fill:#5faf40; stroke:none;" d="M23 174L24 175L23 174M28 174L29 175L28 174z"/>
<path style="fill:#93c8a6; stroke:none;" d="M51 174L52 175L51 174z"/>
<path style="fill:#5faf40; stroke:none;" d="M99 174L100 175L99 174M189 174L190 175L189 174M29 175L30 176L29 175M140 175L141 176L140 175M161 175L162 176L161 175M183 175L184 176L183 175M188 175L189 176L188 175z"/>
<path style="fill:#93c8a6; stroke:none;" d="M30 176L31 177L30 176z"/>
<path style="fill:#5faf40; stroke:none;" d="M52 176L53 177L52 176M69 176L70 177L69 176M165 176L166 177L165 176M182 176L183 177L182 176z"/>
<path style="fill:#93c8a6; stroke:none;" d="M31 177L32 178L31 177z"/>
<path style="fill:#5faf40; stroke:none;" d="M48 177L49 178L48 177M100.333 177.667L100.667 178.333L100.333 177.667M164 177L165 178L164 177M181 177L182 178L181 177z"/>
<path style="fill:#93c8a6; stroke:none;" d="M26 178L27 179L26 178z"/>
<path style="fill:#5faf40; stroke:none;" d="M49 178L50 179L49 178M141 178L142 179L141 178M159 178L160 179L159 178M163 178L164 179L163 178z"/>
<path style="fill:#93c8a6; stroke:none;" d="M180 178L181 179L180 178M27 179L28 180L27 179z"/>
<path style="fill:#5faf40; stroke:none;" d="M50 179L51 180L50 179M54 179L55 180L54 179z"/>
<path style="fill:#93c8a6; stroke:none;" d="M179 179L180 180L179 179z"/>
<path style="fill:#5faf40; stroke:none;" d="M28 180L29 181L28 180M55 180L56 181L55 180z"/>
<path style="fill:#93c8a6; stroke:none;" d="M115.333 180.667L115.667 181.333L115.333 180.667M178 180L179 181L178 180M184 180L185 181L184 180z"/>
<path style="fill:#5faf40; stroke:none;" d="M29 181L30 182L29 181M53 181L54 182L53 181z"/>
<path style="fill:#93c8a6; stroke:none;" d="M56 181L57 182L56 181M68 181L69 182L68 181z"/>
<path style="fill:#5faf40; stroke:none;" d="M142 181L143 182L142 181M159 181L160 182L159 181z"/>
<path style="fill:#93c8a6; stroke:none;" d="M177 181L178 182L177 181M183 181L184 182L183 181z"/>
<path style="fill:#5faf40; stroke:none;" d="M30 182L31 183L30 182M54 182L55 183L54 182M115 182L115 186L116 186L115 182M156 182L154 185L156 182z"/>
<path style="fill:#93c8a6; stroke:none;" d="M158 182L159 183L158 182M176 182L177 183L176 182z"/>
<path style="fill:#5faf40; stroke:none;" d="M182 182L183 183L182 182M31 183L32 184L31 183z"/>
<path style="fill:#93c8a6; stroke:none;" d="M175 183L176 184L175 183z"/>
<path style="fill:#5faf40; stroke:none;" d="M181 183L182 184L181 183M32 184L33 185L32 184z"/>
<path style="fill:#93c8a6; stroke:none;" d="M38 184L39 185L38 184z"/>
<path style="fill:#5faf40; stroke:none;" d="M57 184L58 185L57 184M143 184L144 185L143 184z"/>
<path style="fill:#93c8a6; stroke:none;" d="M155 184L156 185L155 184z"/>
<path style="fill:#5faf40; stroke:none;" d="M174 184L175 185L174 184M180 184L181 185L180 184M33 185L34 186L33 185M39 185L40 186L39 185M100 185L101 186L100 185M153 185L154 186L153 185M173 185L174 186L173 185M179 185L180 186L179 185M34 186L35 187L34 186M40 186L41 187L40 186z"/>
<path style="fill:#93c8a6; stroke:none;" d="M60.6667 186.333L61.3333 186.667L60.6667 186.333z"/>
<path style="fill:#5faf40; stroke:none;" d="M69 186L70 187L69 186z"/>
<path style="fill:#93c8a6; stroke:none;" d="M100 186L101 187L100 186z"/>
<path style="fill:#5faf40; stroke:none;" d="M172 186L173 187L172 186z"/>
<path style="fill:#93c8a6; stroke:none;" d="M178 186L179 187L178 186z"/>
<path style="fill:#5faf40; stroke:none;" d="M35 187L36 188L35 187M41 187L42 188L41 187M144 187L145 188L144 187z"/>
<path style="fill:#93c8a6; stroke:none;" d="M36 188L37 189L36 188z"/>
<path style="fill:#5faf40; stroke:none;" d="M99 188L100 189L99 188z"/>
<path style="fill:#93c8a6; stroke:none;" d="M37 189L38 190L37 189z"/>
<path style="fill:#5faf40; stroke:none;" d="M70 189L71 190L70 189z"/>
<path style="fill:#93c8a6; stroke:none;" d="M168 189L169 190L168 189z"/>
<path style="fill:#5faf40; stroke:none;" d="M45 190L46 191L45 190M98 190L99 191L98 190M145 190L146 191L145 190M167 190L168 191L167 190M46 191L47 192L46 191M172 191L173 192L172 191M41 192L42 193L41 192z"/>
<path style="fill:#93c8a6; stroke:none;" d="M48 192L49 193L48 192z"/>
<path style="fill:#5faf40; stroke:none;" d="M72 192L73 193L72 192M164 192L165 193L164 192M171 192L172 193L171 192z"/>
<path style="fill:#93c8a6; stroke:none;" d="M42 193L43 194L42 193z"/>
<path style="fill:#5faf40; stroke:none;" d="M49 193L50 194L49 193M73 193L74 194L73 193z"/>
<path style="fill:#93c8a6; stroke:none;" d="M96 193L97 194L96 193z"/>
<path style="fill:#5faf40; stroke:none;" d="M146 193L147 194L146 193M163 193L164 194L163 193z"/>
<path style="fill:#93c8a6; stroke:none;" d="M51 194L52 195L51 194z"/>
<path style="fill:#5faf40; stroke:none;" d="M74 194L75 195L74 194z"/>
<path style="fill:#93c8a6; stroke:none;" d="M95 194L96 195L95 194M161 194L162 195L161 194z"/>
<path style="fill:#5faf40; stroke:none;" d="M45 195L46 196L45 195M52 195L53 196L52 195z"/>
<path style="fill:#93c8a6; stroke:none;" d="M75 195L76 196L75 195M114.333 195.667L114.667 196.333L114.333 195.667z"/>
<path style="fill:#5faf40; stroke:none;" d="M140 195L140 196L143 196L140 195z"/>
<path style="fill:#93c8a6; stroke:none;" d="M143.667 195.333L144.333 195.667L143.667 195.333z"/>
<path style="fill:#5faf40; stroke:none;" d="M160 195L161 196L160 195z"/>
<path style="fill:#93c8a6; stroke:none;" d="M167 195L168 196L167 195M46 196L47 197L46 196z"/>
<path style="fill:#5faf40; stroke:none;" d="M54 196L55 197L54 196M77 196L78 197L77 196M92 196L93 197L92 196M131 196L131 197L134 197L131 196z"/>
<path style="fill:#93c8a6; stroke:none;" d="M134 196L135 197L134 196z"/>
<path style="fill:#5faf40; stroke:none;" d="M158 196L159 197L158 196M48 197L49 198L48 197M79 197L80 198L79 197M90 197L91 198L90 197M114 197L115 198L114 197M121 197L121 198L125 198L121 197z"/>
<path style="fill:#93c8a6; stroke:none;" d="M125 197L126 198L125 197M156 197L157 198L156 197z"/>
<path style="fill:#5faf40; stroke:none;" d="M164 197L165 198L164 197M57 198L58 199L57 198z"/>
<path style="fill:#93c8a6; stroke:none;" d="M82 198L83 199L82 198z"/>
<path style="fill:#5faf40; stroke:none;" d="M83 198L83 199L86 199L83 198z"/>
<path style="fill:#93c8a6; stroke:none;" d="M86 198L87 199L86 198M114.667 198.333L115.333 198.667L114.667 198.333z"/>
<path style="fill:#5faf40; stroke:none;" d="M51 199L52 200L51 199M59 199L60 200L59 199M153 199L154 200L153 199z"/>
<path style="fill:#93c8a6; stroke:none;" d="M161 199L162 200L161 199z"/>
<path style="fill:#5faf40; stroke:none;" d="M61 200L62 201L61 200M151 200L152 201L151 200M159 200L160 201L159 200z"/>
<path style="fill:#93c8a6; stroke:none;" d="M54 201L55 202L54 201z"/>
<path style="fill:#5faf40; stroke:none;" d="M63 201L64 202L63 201z"/>
<path style="fill:#93c8a6; stroke:none;" d="M74 201L75 202L74 201z"/>
<path style="fill:#5faf40; stroke:none;" d="M75 201L75 202L82 202L75 201z"/>
<path style="fill:#93c8a6; stroke:none;" d="M82 201L83 202L82 201M130 201L131 202L130 201z"/>
<path style="fill:#5faf40; stroke:none;" d="M131 201L131 202L138 202L131 201z"/>
<path style="fill:#93c8a6; stroke:none;" d="M138 201L139 202L138 201z"/>
<path style="fill:#5faf40; stroke:none;" d="M149 201L150 202L149 201z"/>
<path style="fill:#93c8a6; stroke:none;" d="M56 202L57 203L56 202z"/>
<path style="fill:#5faf40; stroke:none;" d="M65 202L66 203L65 202M70.6667 202.333L71.3333 202.667L70.6667 202.333M86 202L87 203L86 202z"/>
<path style="fill:#93c8a6; stroke:none;" d="M125 202L126 203L125 202z"/>
<path style="fill:#5faf40; stroke:none;" d="M126 202L127 203L126 202M141 202L142 203L141 202z"/>
<path style="fill:#93c8a6; stroke:none;" d="M142 202L143 203L142 202M146 202L147 203L146 202z"/>
<path style="fill:#5faf40; stroke:none;" d="M58 203L59 204L58 203M68 203L69 204L68 203M89 203L90 204L89 203M123 203L124 204L123 203M144 203L145 204L144 203z"/>
<path style="fill:#93c8a6; stroke:none;" d="M154 203L155 204L154 203z"/>
<path style="fill:#5faf40; stroke:none;" d="M60 204L61 205L60 204M91 204L92 205L91 204M121 204L122 205L121 204z"/>
<path style="fill:#93c8a6; stroke:none;" d="M152 204L153 205L152 204M62 205L63 206L62 205z"/>
<path style="fill:#5faf40; stroke:none;" d="M93 205L94 206L93 205M119 205L120 206L119 205z"/>
<path style="fill:#93c8a6; stroke:none;" d="M150 205L151 206L150 205z"/>
<path style="fill:#5faf40; stroke:none;" d="M62 206L63 207L62 206z"/>
<path style="fill:#93c8a6; stroke:none;" d="M117 206L118 207L117 206z"/>
<path style="fill:#5faf40; stroke:none;" d="M150 206L151 207L150 206z"/>
<path style="fill:#93c8a6; stroke:none;" d="M60 207L61 208L60 207M96 207L97 208L96 207z"/>
<path style="fill:#5faf40; stroke:none;" d="M116 207L117 208L116 207M97 208L98 209L97 208M115 208L116 209L115 208M153 208L154 209L153 208z"/>
<path style="fill:#93c8a6; stroke:none;" d="M57 209L58 210L57 209z"/>
<path style="fill:#5faf40; stroke:none;" d="M98 209L99 210L98 209M56 210L57 211L56 210M99 210L100 211L99 210z"/>
<path style="fill:#93c8a6; stroke:none;" d="M156 210L157 211L156 210z"/>
<path style="fill:#5faf40; stroke:none;" d="M100 211L101 212L100 211M157 211L158 212L157 211M101 212L102 213L101 212M74 213L75 214L74 213z"/>
<path style="fill:#93c8a6; stroke:none;" d="M75 213L76 214L75 213M83 213L84 214L83 213z"/>
<path style="fill:#5faf40; stroke:none;" d="M84 213L85 214L84 213z"/>
<path style="fill:#93c8a6; stroke:none;" d="M102 213L103 214L102 213z"/>
<path style="fill:#5faf40; stroke:none;" d="M110 213L111 214L110 213M127 213L128 214L127 213z"/>
<path style="fill:#93c8a6; stroke:none;" d="M128 213L128 214L131 214L128 213M136.667 213.333L137.333 213.667L136.667 213.333z"/>
<path style="fill:#5faf40; stroke:none;" d="M138 213L139 214L138 213z"/>
<path style="fill:#93c8a6; stroke:none;" d="M51 214L52 215L51 214z"/>
<path style="fill:#5faf40; stroke:none;" d="M70 214L71 215L70 214z"/>
<path style="fill:#93c8a6; stroke:none;" d="M88 214L89 215L88 214M124 214L125 215L124 214z"/>
<path style="fill:#5faf40; stroke:none;" d="M142 214L143 215L142 214M50 215L51 216L50 215z"/>
<path style="fill:#93c8a6; stroke:none;" d="M67 215L68 216L67 215z"/>
<path style="fill:#5faf40; stroke:none;" d="M91 215L92 216L91 215M103 215L104 216L103 215M121 215L122 216L121 215M145 215L146 216L145 215M49 216L50 217L49 216M64 216L65 217L64 216M119 216L120 217L119 216M48 217L49 218L48 217z"/>
<path style="fill:#93c8a6; stroke:none;" d="M94 217L95 218L94 217M104 217L105 218L104 217z"/>
<path style="fill:#5faf40; stroke:none;" d="M108 217L109 218L108 217M150 217L151 218L150 217M47 218L48 219L47 218M96 218L97 219L96 218z"/>
<path style="fill:#93c8a6; stroke:none;" d="M116 218L117 219L116 218z"/>
<path style="fill:#5faf40; stroke:none;" d="M152 218L153 219L152 218M46 219L47 220L46 219z"/>
<path style="fill:#93c8a6; stroke:none;" d="M97 219L98 220L97 219z"/>
<path style="fill:#5faf40; stroke:none;" d="M107 219L108 220L107 219M154 219L155 220L154 219z"/>
<path style="fill:#93c8a6; stroke:none;" d="M45 220L46 221L45 220z"/>
<path style="fill:#5faf40; stroke:none;" d="M105 220L106 221L105 220M156 220L157 221L156 220z"/>
<path style="fill:#93c8a6; stroke:none;" d="M44 221L45 222L44 221z"/>
<path style="fill:#5faf40; stroke:none;" d="M54 221L55 222L54 221z"/>
<path style="fill:#93c8a6; stroke:none;" d="M106 221L107 222L106 221z"/>
<path style="fill:#5faf40; stroke:none;" d="M112 221L113 222L112 221M158 221L159 222L158 221z"/>
<path style="fill:#93c8a6; stroke:none;" d="M43 222L44 223L43 222z"/>
<path style="fill:#5faf40; stroke:none;" d="M52 222L53 223L52 222M111 222L112 223L111 222M110 223L111 224L110 223z"/>
<path style="fill:#93c8a6; stroke:none;" d="M49 224L50 225L49 224z"/>
<path style="fill:#5faf40; stroke:none;" d="M109 224L110 225L109 224M163 224L164 225L163 224M47 225L48 226L47 225M108 225L109 226L108 225M171 225L172 226L171 225z"/>
<path style="fill:#93c8a6; stroke:none;" d="M166 226L167 227L166 226z"/>
<path style="fill:#5faf40; stroke:none;" d="M172 226L173 227L172 226M39 227L40 228L39 227M44 227L45 228L44 227z"/>
<path style="fill:#93c8a6; stroke:none;" d="M105 227L106 228L105 227M38 228L39 229L38 228M169 228L170 229L169 228z"/>
<path style="fill:#5faf40; stroke:none;" d="M41 229L42 230L41 229z"/>
<path style="fill:#93c8a6; stroke:none;" d="M40 230L41 231L40 230M172 230L173 231L172 230z"/>
<path style="fill:#5faf40; stroke:none;" d="M175 230L176 231L175 230M38 231L39 232L38 231z"/>
<path style="fill:#93c8a6; stroke:none;" d="M176 231L177 232L176 231M35 232L36 233L35 232M37 232L38 233L37 232z"/>
<path style="fill:#5faf40; stroke:none;" d="M175 232L176 233L175 232z"/>
<path style="fill:#93c8a6; stroke:none;" d="M34 233L35 234L34 233z"/>
<path style="fill:#5faf40; stroke:none;" d="M34 234L35 235L34 234M178 234L179 235L178 234z"/>
</svg>
